<svg width="300" height="85" viewBox="0 0 300 85" fill="none" xmlns="http://www.w3.org/2000/svg">
<path fill-rule="evenodd" clip-rule="evenodd" d="M140.508 62.9388C123.569 59.1633 101.642 61.0381 82.0946 66.5998C79.3213 67.3889 76.6023 68.2422 73.437 69.2355C72.9734 69.381 72.5003 69.5295 72.016 69.6812C68.3973 70.815 64.2429 72.1011 59.853 73.2648C58.0773 73.7354 57.3649 73.9875 56.2648 74.3768C55.1568 74.769 53.6554 75.3003 50.278 76.3344C45.5127 77.7934 38.6141 79.5775 30.3257 79.5355C13.7574 79.4514 0.394237 65.9519 0.47833 49.3836C0.562203 32.8582 13.9919 19.5215 30.5013 19.5358C30.6842 19.5075 31.3224 19.3888 32.7126 18.9631C33.6619 18.6725 34.5226 18.3837 35.7638 17.9672C36.2135 17.8163 36.7132 17.6487 37.2852 17.4581C39.1794 16.8269 41.694 16.006 44.48 15.2676C47.4666 14.4759 50.5113 13.5429 54.0776 12.4255C54.5103 12.29 54.9538 12.1507 55.4069 12.0084C58.5087 11.0342 62.0623 9.9181 65.675 8.8902C91.4026 1.57012 123.916 -2.23158 153.561 4.37573C154.247 4.52877 155.22 4.71077 156.421 4.93562C162.931 6.15407 176.162 8.63063 187.071 14.5742C195.877 19.3713 204.808 22.2794 215.104 23.6755C225.265 25.0534 232.97 24.3639 238.834 22.0375C240.502 21.3761 242.427 20.6794 243.846 20.166C244.176 20.0465 244.478 19.937 244.744 19.8401C246.473 19.2097 247.7 18.7406 248.705 18.3054C248.834 18.2494 248.952 18.1975 249.058 18.1498C259.879 7.63396 277.11 6.72257 289.024 16.5443C301.808 27.0838 303.628 45.9914 293.088 58.7756C286.17 67.1669 277.044 71.4186 272.537 73.3693C269.834 74.5392 267.235 75.5034 265.298 76.2099C264.686 76.4328 264.163 76.6226 263.704 76.7889C262.468 77.2371 261.702 77.5146 260.959 77.8093C242.181 85.2588 223.146 85.3151 207.042 83.1313C189.729 80.7837 173.774 75.6565 158.367 67.2624C156.4 66.1911 155.094 65.9342 150.963 65.1217C148.61 64.6588 145.34 64.0156 140.508 62.9388ZM30.4435 19.5438C30.4436 19.5437 30.4468 19.5433 30.4531 19.5427C30.4465 19.5436 30.4434 19.5439 30.4435 19.5438Z" fill="current"/>
</svg>
