<svg width="170" height="45" viewBox="0 0 170 45" fill="#3E4043" xmlns="http://www.w3.org/2000/svg">
<path d="M29.2325 40.3517C19.7971 41.8041 13.3848 40.133 8.17716 34.857C0.268546 26.8444 0.0431404 10.02 15.6625 3.73778C21.9358 1.21427 28.2764 1.35589 34.4501 4.39231C35.5696 4.93828 35.8058 5.3682 34.9672 6.41618C33.4116 8.3585 31.9434 10.3847 30.5563 12.4343C30.0249 13.2046 29.6775 13.1043 28.9441 12.6923C25.1775 10.6303 21.3829 10.9441 17.8541 13.1406C14.5186 15.2156 13.5624 18.4978 13.9482 22.2034C14.3822 26.3581 16.1082 29.7838 20.3825 31.1554C24.6569 32.5271 28.5245 31.4728 31.6785 28.2956C32.3251 27.6446 32.6343 27.6241 33.3201 28.1271C35.4134 29.6738 37.5288 31.1989 39.703 32.6348C40.5968 33.2169 40.4867 33.5753 39.8238 34.2616C36.3355 37.8875 32.0803 39.9828 29.2325 40.3517Z" fill="#2D2E30"/>
<path d="M87.7027 31.8706C84.1538 33.6871 80.7383 33.5959 77.7129 31.0647C74.5239 28.4029 74.0406 24.8045 74.8989 21.0311C75.654 17.7358 77.7582 15.5226 81.1913 14.6969C83.151 14.1899 85.2334 14.4175 87.0307 15.3353C87.3478 15.4955 87.8411 16.0254 87.8034 15.074C87.7908 14.7462 88.0853 14.8029 88.2917 14.8004C90.3052 14.8004 92.3012 14.8004 94.3047 14.7881C94.8207 14.7881 94.9138 15.005 94.9138 15.4412C94.9037 20.9818 94.9037 26.5223 94.9138 32.0629C94.9138 32.5386 94.7426 32.6889 94.2695 32.684C92.3012 32.6692 90.3329 32.6347 88.3672 32.7012C87.6423 32.7234 87.8713 32.1738 87.7027 31.8706ZM84.934 26.7762C86.7639 26.7762 87.9922 25.5784 88.0047 23.7816C88.0173 21.9849 86.7337 20.6909 84.9844 20.6909C84.5762 20.6859 84.1711 20.7615 83.7934 20.9132C83.4157 21.065 83.0731 21.2898 82.7862 21.5742C82.4993 21.8586 82.2739 22.1967 82.1236 22.5684C81.9732 22.9401 81.901 23.3376 81.9112 23.7373C81.9011 25.5463 83.1218 26.7737 84.9366 26.7762H84.934Z" fill="#2D2E30"/>
<path d="M65.4264 27.2615C63.6914 27.3901 61.9563 27.5188 60.2213 27.6474C59.9208 27.6697 59.4684 27.5146 59.3576 27.9101C59.2669 28.2396 59.6271 28.4735 59.8489 28.7079C61.201 30.127 64.2462 30.2414 65.9411 28.6956C66.9369 27.7875 67.4782 27.9187 68.2834 28.7702C68.9098 29.3901 69.5881 29.9568 70.311 30.4645C70.797 30.8282 70.8489 31.0801 70.4202 31.5662C66.3436 36.186 56.6243 35.5511 53.4263 30.3634C49.8115 24.4965 52.8617 16.6856 61.2451 15.8802C67.6607 15.2556 72.2522 19.6671 71.7863 25.8067C71.7346 26.4834 71.5657 26.7442 70.8532 26.7772C69.0415 26.8594 67.234 27.0281 65.4264 27.1622L65.4264 27.2615ZM65.0152 22.8603C64.5607 21.3894 63.6554 20.744 62.2885 20.6815C61.6401 20.6502 60.9964 20.804 60.4345 21.1244C59.8725 21.4449 59.4163 21.9183 59.1203 22.488C58.8405 23.045 58.8231 23.3442 59.6206 23.2702C61.3809 23.1099 63.1475 22.9987 65.0152 22.8603Z" fill="#2D2E30"/>
<path d="M156.237 27.7437C157.556 30.0747 160.957 30.5375 163.097 28.5757C163.996 27.7507 164.43 28.0105 165.108 28.6623C165.77 29.3073 166.479 29.903 167.23 30.4445C167.917 30.9331 167.79 31.2638 167.257 31.7804C164.418 34.557 160.891 34.9572 157.201 34.4903C151.081 33.7135 147.452 27.8621 149.397 22.1199C150.754 18.1029 155.273 15.339 159.907 15.6982C165.778 16.1533 169.175 20.0242 168.866 25.8571C168.828 26.5595 168.577 26.7706 167.872 26.8156C164.094 27.0569 160.295 27.3545 156.511 27.6362C156.416 27.6625 156.324 27.6985 156.237 27.7437ZM155.879 23.1711C157.835 23.0462 159.671 22.9289 161.509 22.8115C162.041 22.7776 162.037 22.5278 161.869 22.171C161.704 21.7821 161.443 21.44 161.11 21.1754C160.778 20.9108 160.384 20.7319 159.964 20.655C158.04 20.3078 156.615 21.1439 155.876 23.1713L155.879 23.1711Z" fill="#2D2E30"/>
<path d="M112.653 24.8129C112.437 23.1124 112.249 21.406 111.991 19.7082C111.89 19.0548 112.04 18.8136 112.739 18.7449C114.587 18.5672 116.433 18.3396 118.268 18.0633C118.961 17.9604 119.158 18.1563 119.236 18.8125C119.594 21.8947 119.993 24.9768 120.408 28.0494C120.59 29.4887 121.361 30.1846 122.533 30.0402C123.634 29.9194 124.303 29.0534 124.157 27.8375C123.779 24.7202 123.402 21.603 122.957 18.4964C122.855 17.6881 123.014 17.4207 123.859 17.3465C125.707 17.1887 127.551 16.9365 129.386 16.6651C129.974 16.5927 130.157 16.7378 130.23 17.312C130.634 20.7189 131.141 24.1156 131.487 27.5295C131.855 31.1536 129.379 34.4624 125.371 35.6124C122.063 36.5634 118.818 36.4478 115.977 34.1999C115.208 33.5957 114.568 32.8458 114.097 31.9944C113.626 31.1429 113.332 30.207 113.232 29.2419L112.653 24.8129Z" fill="#2D2E30"/>
<path d="M100.066 23.4007C100.066 21.6518 100.046 19.9005 100.078 18.1516C100.078 17.5835 99.9184 17.3404 99.3302 17.4074C99.1102 17.421 98.8896 17.421 98.6697 17.4074C96.202 17.4074 96.202 17.4074 96.202 14.9068C96.202 14.0684 96.2568 13.2249 96.187 12.3914C96.1222 11.6323 96.4363 11.4661 97.1218 11.5157C97.8521 11.5678 98.5924 11.4934 99.3252 11.5381C99.906 11.5728 100.073 11.3743 100.073 10.7939C100.041 8.86388 100.073 6.92894 100.048 4.99649C100.036 4.35151 100.193 4.09352 100.903 4.11336C102.743 4.1605 104.582 4.15802 106.419 4.11336C107.095 4.096 107.306 4.29198 107.292 4.9692C107.249 6.86445 107.304 8.76218 107.264 10.6574C107.249 11.3049 107.389 11.5678 108.102 11.5356C109.086 11.4909 110.402 11.1933 110.976 11.6894C111.646 12.2674 111.175 13.6045 111.18 14.6116C111.18 15.5072 111.599 16.6805 111.005 17.2337C110.412 17.7869 109.261 17.4223 108.346 17.3751C107.431 17.328 107.252 17.6133 107.252 18.4741C107.304 21.8652 107.252 25.2563 107.289 28.6449C107.289 29.3643 107.097 29.5752 106.374 29.5553C104.537 29.5057 102.695 29.5156 100.858 29.5553C100.237 29.5677 100.028 29.3965 100.041 28.7615C100.09 26.9754 100.066 25.1893 100.066 23.4007Z" fill="#2D2E30"/>
<path d="M134.47 22.6653C134.47 20.0107 134.508 17.3561 134.448 14.7015C134.43 13.8596 134.697 13.6689 135.502 13.6961C137.263 13.7581 139.027 13.6962 140.788 13.7209C141.174 13.7209 141.658 13.5104 141.717 14.2657C141.757 14.7857 142.173 14.3648 142.34 14.2657C143.96 13.4114 145.678 13.238 147.465 13.446C147.612 13.4634 147.759 13.4758 147.901 13.5055C149.846 13.9091 150.016 14.3103 148.897 15.8654C148.028 17.0813 147.153 18.2897 146.301 19.5179C146.027 19.9117 145.86 20.1048 145.277 19.8498C143.103 18.8939 141.685 19.8498 141.675 22.2345C141.675 25.0698 141.643 27.9077 141.692 30.7431C141.707 31.5256 141.463 31.7138 140.696 31.6915C138.897 31.637 137.096 31.6444 135.297 31.6915C134.62 31.7088 134.423 31.5157 134.433 30.8372C134.493 28.1182 134.47 25.3918 134.47 22.6653Z" fill="#2D2E30"/>
<path d="M45.9592 12.0925C48.284 10.8169 50.5485 10.545 52.8783 11.2742C54.1849 11.6821 54.21 11.9071 53.4426 12.9749C52.4645 14.3395 51.4714 15.6941 50.5109 17.071C50.2175 17.4863 50.0094 17.6024 49.4677 17.3553C47.3962 16.4209 45.9316 17.3553 45.9166 19.58C45.8965 22.45 45.8764 25.3199 45.9316 28.1899C45.9492 29.0377 45.6808 29.2256 44.8658 29.2009C43.0526 29.144 41.2394 29.1589 39.4263 29.2009C38.8043 29.2133 38.6137 29.0402 38.6162 28.4173C38.6413 22.9691 38.6413 17.52 38.6162 12.0702C38.6162 11.3731 38.8319 11.2223 39.494 11.2396C41.3448 11.2808 43.1947 11.2808 45.0438 11.2396C45.6683 11.2075 46.0294 11.336 45.9592 12.0925Z" fill="#2D2E30"/>
</svg>
