<svg width="175" height="36" viewBox="0 0 230 36" fill="none" xmlns="http://www.w3.org/2000/svg">
<path d="M2.56535 25.8453L5.32649 23.8806C6.28638 23.2295 7.22253 22.5442 8.19426 21.9274C9.29335 21.4077 10.3338 20.7799 11.299 20.054C13.4795 17.998 16.6791 18.1807 19.0136 16.5016C21.3837 16.7186 23.0664 15.1765 25.081 14.4341C26.4085 14.0332 27.7575 13.7015 29.122 13.4403C29.9283 13.2394 30.7201 12.9875 31.492 12.6864C33.0326 12.0924 34.5849 11.5442 36.1136 10.8017C42.738 7.85468 49.6823 4.80482 57.622 3.08C58.5464 2.86297 59.5062 2.64595 60.4543 2.3718L61.9 2.0062C62.424 1.85497 62.9587 1.74053 63.4998 1.6636C63.9577 1.52748 64.3987 1.34352 64.8152 1.1152C65.1775 0.9089 65.5817 0.780379 66.0002 0.738299C67.5052 0.875373 68.9628 0.932528 70.4441 1.0696C71.924 1.16911 73.3674 1.55774 74.6865 2.21187C75.097 2.44404 75.4927 2.69951 75.8716 2.97709C77.5439 4.21171 78.932 5.76756 79.9481 7.54615C80.5525 8.60846 81.0028 9.76219 81.5005 10.8702C81.9364 11.8485 82.2698 12.8664 82.4959 13.9086C82.6025 14.4455 82.7092 14.9824 82.7803 15.5193L82.8751 16.3417L82.9462 17.0156L83.0054 17.9865C83.0054 18.3063 83.0054 18.4321 83.0054 18.6605C83.0054 18.889 82.9462 18.9232 82.9225 19.0717C82.8988 19.2202 83.3847 19.2544 83.4795 19.3344C83.636 19.5281 83.8573 19.6634 84.1058 19.7176C84.3542 19.7717 84.6144 19.7413 84.8422 19.6314C84.9646 19.5783 85.0738 19.5003 85.1622 19.4029C85.2538 19.2688 85.3928 19.1714 85.5533 19.1287C86.3591 18.8432 87.3901 18.5348 88.5159 18.1235C89.8962 17.7648 91.1059 16.9578 91.9406 15.839C92.3198 15.2679 93.2323 15.2679 93.884 14.8681C94.8439 14.297 95.9816 13.8286 97.0955 13.2689C98.186 12.7774 99.1648 12.0826 99.9751 11.2244C101.207 10.0594 102.594 9.05679 104.099 8.24292C105.559 7.19976 107.114 6.28616 108.744 5.51303C111.719 4.25653 114.67 2.57735 118.225 1.892C119.267 1.67103 120.296 1.39264 121.306 1.05816C121.863 0.898245 122.491 0.726847 123.036 0.566927L123.51 0.45273L124.091 0.327097C124.482 0.247137 124.885 0.178541 125.276 0.121427C127.272 -0.159461 129.31 0.0487721 131.201 0.726861C132.255 1.09239 133.31 1.46933 134.353 1.86913C135.666 2.4614 136.9 3.20561 138.027 4.08519C138.56 4.53067 139.117 4.95322 139.638 5.42155C140.137 5.83776 140.612 6.28014 141.06 6.74662C141.25 6.9408 141.439 7.14643 141.605 7.34062C141.771 7.5348 141.902 7.729 142.032 7.92319C142.296 8.29435 142.489 8.70831 142.601 9.14535C142.623 9.22206 142.66 9.29387 142.711 9.35659C142.762 9.41932 142.825 9.47179 142.897 9.51095C143.768 10.0101 144.536 10.6607 145.16 11.4299C145.397 11.6926 145.303 11.7269 145.433 11.8868C145.46 11.9574 145.51 12.0176 145.575 12.0582C145.595 12.0912 145.623 12.1194 145.656 12.1411C145.688 12.1628 145.726 12.1775 145.765 12.1838C145.834 12.2124 145.909 12.2272 145.984 12.2272C146.059 12.2272 146.134 12.2124 146.203 12.1838C146.203 12.1039 146.535 12.1038 146.784 12.0353C147.033 11.9668 147.305 11.9325 147.566 11.9097C148.733 11.8678 149.887 11.6599 150.991 11.2928C152.641 10.5274 154.226 9.63749 155.731 8.63138C156.217 8.33439 156.643 7.96878 157.177 7.68321L160.507 5.90135C161.692 5.29595 162.877 4.64482 164.263 4.00515C164.831 3.79852 165.413 3.63065 166.005 3.50262C166.74 3.30844 167.451 3.10281 168.233 2.90862C168.494 2.84009 168.743 2.61165 168.991 2.63449C170.147 2.70355 171.307 2.65377 172.452 2.48599C173.758 2.30195 175.077 2.21415 176.398 2.22329C177.938 2.26511 179.468 2.4719 180.96 2.84002C181.79 3.11416 182.619 3.38831 183.413 3.69672C184.201 4.0294 184.965 4.41095 185.7 4.83898C186.225 5.07472 186.773 5.25841 187.336 5.38725C188.261 5.68303 189.124 6.13567 189.884 6.72375C190.833 7.58486 191.669 8.55551 192.372 9.61371C192.716 10.1506 193.036 10.7559 193.344 11.2471C193.498 11.5098 193.628 11.7954 193.759 12.0467L194.043 12.6636C194.418 13.8273 195.03 14.9068 195.844 15.839C195.382 16.3416 195.382 16.5358 195.465 16.73C195.599 17.0079 195.645 17.3181 195.595 17.621C195.595 18.3635 196.117 18.2264 196.449 18.1921C196.825 18.2006 197.198 18.2504 197.563 18.3406C198.072 18.3406 198.866 18.8089 199.222 17.8151C199.305 17.5752 199.755 17.7238 200.075 17.7466C200.437 17.8117 200.81 17.8029 201.169 17.7208C201.528 17.6388 201.865 17.4852 202.158 17.27C202.452 17.0549 202.696 16.7829 202.873 16.4715C203.051 16.1601 203.16 15.8163 203.192 15.4621C203.214 15.3586 203.258 15.2607 203.321 15.1743C203.385 15.0879 203.465 15.0147 203.559 14.9594C205.582 13.5078 207.402 11.811 208.974 9.91071C209.975 9.05553 211.144 8.40287 212.411 7.99164C213.528 7.54417 214.671 7.16271 215.836 6.84938C217.365 6.40389 218.893 5.96992 220.576 5.65008C220.985 5.58516 221.376 5.44007 221.724 5.22396C222.073 5.00786 222.372 4.72522 222.602 4.39348C223.157 3.75665 223.828 3.22249 224.581 2.81715C224.771 2.6915 225.174 2.62301 225.292 2.72582C226.169 3.55967 227.283 3.36549 228.172 3.86808C228.709 4.18113 229.153 4.62179 229.462 5.14783C229.771 5.67387 229.935 6.26766 229.938 6.87224C230.151 9.35096 229.831 11.0415 228.753 12.2751C228.373 12.7478 228.139 13.3139 228.077 13.9086C227.999 14.9213 227.706 15.9076 227.214 16.8058C226.723 17.7041 226.044 18.4949 225.221 19.1287C224.098 20.3293 222.912 21.4731 221.666 22.5555C219.829 23.8805 218.111 25.6054 215.919 27.1932C214.211 28.4334 212.421 29.5666 210.562 30.5857C208.763 31.6083 206.895 32.5128 204.969 33.2928C204.439 33.5046 203.897 33.6876 203.346 33.8411C202.781 34.03 202.203 34.1789 201.615 34.2866L200.62 34.4808C200.253 34.4808 199.873 34.5722 199.506 34.6179C198.762 34.6959 198.014 34.7225 197.266 34.6978C195.167 34.6923 193.08 34.396 191.069 33.8182C189.084 33.2678 187.325 32.1386 186.032 30.5857C185.262 29.5919 183.994 28.7923 183.117 27.73C182.559 27.0394 182.048 26.3144 181.588 25.5597C181.351 25.1942 181.114 24.8059 180.948 24.4975L180.439 23.6293C180.228 23.264 179.987 22.9163 179.716 22.5898C179.475 22.3059 179.218 22.0352 178.946 21.7789C178.645 21.5309 178.378 21.2468 178.152 20.9336C177.974 20.6709 178.081 20.6708 178.152 20.4309C178.223 20.1911 177.855 20.1225 177.642 20.1225C177.429 20.1225 177.216 20.4195 177.251 20.2596C177.322 19.8027 177.121 19.6085 176.907 19.5285C176.778 19.5058 176.646 19.5058 176.516 19.5285C176.34 19.564 176.162 19.5908 175.983 19.6085C175.055 19.5981 174.131 19.7292 173.246 19.9969C171.196 20.7508 168.6 21.8017 165.673 23.0468C165.081 23.2981 164.559 23.8006 163.931 24.109C162.279 25.0454 160.443 25.6406 158.539 25.8567C157.243 26.1179 155.962 26.4419 154.7 26.8276C152.243 27.2934 149.734 27.4584 147.234 27.3188C146.563 27.2815 145.894 27.2051 145.232 27.0903C144.568 26.9989 143.892 26.8391 143.087 26.7363C142.66 26.6449 142.245 26.565 141.819 26.5079C140.242 26.2887 138.728 25.7683 137.363 24.9771C136.689 24.5754 136.051 24.1208 135.455 23.6179C134.906 23.1479 134.406 22.6276 133.962 22.0644C133.749 21.8131 133.381 21.6303 133.203 21.3904L132.552 20.5337L132.018 19.6999C131.9 19.5171 132.018 19.2201 131.829 19.1173C131.075 18.5373 130.444 17.8239 129.968 17.0156C129.869 16.8744 129.781 16.7253 129.708 16.5701L129.565 16.2959C129.467 16.1131 129.32 15.9592 129.139 15.8504C128.931 15.7195 128.733 15.5745 128.546 15.4164C128.313 15.2015 128.034 15.038 127.729 14.9367C127.359 14.858 126.981 14.8195 126.603 14.8224L126.283 14.8224C126.137 14.8024 125.99 14.8024 125.844 14.8224C125.469 14.8159 125.094 14.8583 124.73 14.9481C123.093 15.374 121.505 15.9595 119.99 16.6957C119.765 16.7985 119.635 17.1299 119.41 17.2327C116.983 18.2735 114.649 19.5036 112.43 20.9107C110.546 22.133 108.875 23.7092 106.872 24.9886C105.426 25.9138 103.874 26.2908 102.369 27.1932C101.551 27.6615 100.354 27.6501 99.9988 28.9295C99.8803 29.3521 99.3234 29.6034 98.8138 29.7862C97.4866 30.3459 95.9697 30.6656 94.6069 31.2825C93.5788 31.8519 92.5928 32.4893 91.6562 33.1901C91.2295 33.4414 90.8859 33.8526 90.4711 34.0811C89.702 34.4568 88.9106 34.7886 88.1011 35.0749C87.2051 35.3655 86.2855 35.5832 85.3518 35.7259C84.4521 35.8855 83.5407 35.9772 82.6262 36L81.2516 36L79.8769 35.8858C78.0469 35.7696 76.2551 35.3281 74.5917 34.5836C72.1758 33.5392 70.12 31.8508 68.6665 29.7176C67.1583 27.4691 66.2205 24.9098 65.9291 22.2471C65.8343 21.6417 65.7869 20.9792 65.7158 20.3966L65.5973 19.1516L65.5143 18.2492C65.5025 18.1965 65.5025 18.1421 65.5143 18.0894C65.5817 17.7856 65.5311 17.4685 65.3721 17.1984C65.3721 17.1184 64.9929 17.3012 64.7796 17.4611L64.5308 17.6553C64.199 17.9295 64.1279 18.0665 64.0805 18.0436C64.0331 18.0208 64.0094 18.0436 63.9857 18.1693L63.9857 18.2264C63.9857 18.2264 63.8671 18.2264 63.6657 18.3063L62.5399 18.4891C62.0778 18.5577 61.5682 18.4891 61.0823 18.4891C58.9041 18.7359 56.7406 19.0904 54.6002 19.5514C53.4863 19.7684 52.2301 19.7228 51.0451 19.8941C50.1492 20.0759 49.2632 20.3008 48.3906 20.568C47.3715 20.8421 46.3405 21.1392 45.3095 21.459C44.7881 21.6189 44.2667 21.8588 43.7216 21.9844C43.2944 22.1029 42.8454 22.1303 42.4062 22.0644C41.0771 21.8486 39.7115 22.0196 38.4837 22.5555L34.3361 24.1662C32.9733 24.6916 31.6817 25.217 30.3781 25.8224C28.4745 26.7523 26.634 27.7977 24.8677 28.9522C23.7809 29.5735 22.5687 29.963 21.3126 30.0945C20.6513 30.2149 20.0224 30.4636 19.4639 30.8255C17.9826 31.7393 16.5962 32.7903 14.7238 32.8931C14.0009 32.8931 13.2069 32.7331 12.4841 32.8245C11.705 32.8809 10.9503 33.1118 10.2799 33.4985C7.90987 35.0863 5.03023 34.6408 1.9847 33.647C1.22804 33.3351 0.62117 32.7598 0.28511 32.0357C-0.0509495 31.3116 -0.0914311 30.492 0.17163 29.7404C0.71675 28.7695 1.15517 27.7072 1.68843 26.7248C1.90301 26.3637 2.15301 26.0233 2.43501 25.7082L2.56535 25.8453Z" fill="current" stroke="current"/>
</svg>
