<svg width="66" height="37" viewBox="0 0 66 37" xmlns="http://www.w3.org/2000/svg">
<path d="M44.9255 16.291C44.6764 12.258 44.4447 8.22401 44.1599 4.18327C44.1103 3.38014 44.2187 3.01893 45.1561 3.00479C46.933 2.9799 48.7108 2.8483 50.4816 2.68488C51.2171 2.62084 51.4418 2.83801 51.4731 3.54799C51.5834 5.98451 51.7739 8.41621 51.8967 10.852C51.9425 11.5933 52.0103 11.877 52.8898 11.5364C58.9388 9.12675 64.8386 12.7285 65.3866 19.1147C65.7318 23.1543 64.5158 26.4766 60.7285 28.485C59.6696 29.0616 58.4964 29.4045 57.2899 29.4898C56.0834 29.5751 54.8725 29.4009 53.7411 28.9792C53.3657 28.848 52.8951 28.3554 52.7042 29.2151C52.6851 29.313 52.2343 29.345 51.9812 29.3602C50.2069 29.4668 48.4282 29.5439 46.6571 29.7024C45.9067 29.7698 45.7246 29.5104 45.6844 28.8183C45.4542 24.6453 45.1837 20.4698 44.9255 16.291ZM55.2459 23.2485C57.0528 23.1399 58.2177 21.8422 58.1047 20.0532C57.9916 18.2642 56.6628 17.0716 54.9065 17.1449C53.1503 17.2181 51.9766 18.5784 52.0885 20.3898C52.1759 22.2523 53.4011 23.3543 55.2459 23.2485V23.2485Z" fill="current"/>
<path d="M40.1638 18.7605C39.9462 21.3736 39.7012 23.9819 39.5311 26.5988C39.4779 27.3894 39.2658 27.6678 38.4079 27.5636C36.7544 27.3626 35.0848 27.2945 33.4257 27.1303C33.0028 27.0961 32.4459 27.2795 32.3397 26.5282C32.281 26.1135 31.9124 26.4265 31.724 26.5106C27.0195 28.5516 19.9454 25.7705 19.9371 18.1262C19.9324 14.4618 21.1635 11.2949 24.6312 9.43443C27.4079 7.94525 30.2363 8.07491 32.9962 9.60007C33.3311 9.78369 33.7215 10.2997 33.8651 9.42202C33.9214 9.0788 34.291 9.2081 34.5262 9.22714C36.4105 9.37972 38.2927 9.55697 40.1779 9.6674C40.8975 9.70829 40.9002 10.0687 40.856 10.5992C40.6094 13.3192 40.3904 16.0389 40.1638 18.7605ZM33.312 18.1809C33.4647 16.3475 32.3598 14.9738 30.6048 14.8416C30.1993 14.8012 29.7896 14.8424 29.4006 14.9627C29.0117 15.0829 28.6515 15.2798 28.3419 15.5413C28.0323 15.8028 27.7798 16.1235 27.5996 16.484C27.4194 16.8446 27.3152 17.2375 27.2934 17.6388C27.1259 19.4387 28.2443 20.7713 30.0424 20.9293C31.8908 21.0889 33.1406 20.0276 33.312 18.1809Z" fill="current"/>
<path d="M2.25141 17.7479C2.67902 12.6134 3.15961 7.48307 3.5011 2.34152C3.5932 0.915284 4.09099 0.584003 5.46682 0.761178C7.65067 1.04653 9.85701 1.2219 12.0585 1.29495C13.3387 1.33942 13.5458 1.81655 13.4431 2.96901C12.7539 10.644 12.1646 18.3205 11.4616 26.0009C11.3479 27.3662 11.7447 27.6877 13.0415 27.773C16.854 28.0028 20.66 28.3899 24.4739 28.6429C25.6018 28.7145 25.8644 29.0843 25.7305 30.1323C25.4888 31.9936 25.3624 33.8708 25.2629 35.747C25.2142 36.5717 24.9946 36.9255 24.0409 36.845C16.717 36.2146 9.3888 35.6212 2.05645 35.0648C0.930231 34.9736 0.842983 34.4995 0.9255 33.5888C1.38854 28.3091 1.81156 23.0295 2.25141 17.7479Z" fill="current"/>
</svg>
