<svg width="32" height="30" viewBox="0 0 45 45" fill="none" xmlns="http://www.w3.org/2000/svg">
<path d="M8.12194 0L5.74594 2.36805L9.28125 5.89485L11.6539 3.52681L8.12025 0H8.12194ZM39.1297 0L35.5944 3.52681L37.9688 5.89485L41.5024 2.36973L39.1281 0H39.1297ZM23.625 1.05097C23.0681 1.0577 22.5045 1.08971 21.9375 1.15876C21.9206 1.15876 21.9038 1.15539 21.8869 1.15876C15.0424 1.94193 9.59512 7.4612 8.64844 14.2622C7.89244 19.736 10.1537 24.6994 13.9219 27.8961C15.4633 29.2091 16.5058 31.0107 16.875 32.9994V39.2573C16.875 41.3823 18.5976 43.1048 20.7225 43.1048V43.1048C21.3097 44.1103 22.3813 44.7891 23.625 44.7891C24.8687 44.7891 25.9402 44.1103 26.5275 43.1048V43.1048C28.6524 43.1048 30.375 41.3822 30.375 39.2573V36.3679H30.5336V34.367C30.5336 31.8979 31.8195 29.4086 33.9086 27.4734C36.7031 24.6809 38.8125 20.7145 38.8125 16.1586C38.8125 7.83847 31.9511 0.973493 23.625 1.05097ZM23.625 4.41945C30.1472 4.32851 35.4375 9.65745 35.4375 16.1586C35.4375 19.6854 33.8006 22.7912 31.5343 25.0514L31.5883 25.1053C29.3361 27.1781 27.8798 29.9708 27.4708 33.0011H20.0897C19.7184 30.1143 18.4781 27.3201 16.1342 25.3159C13.1524 22.7895 11.3754 18.9831 11.9694 14.6849C12.7069 9.37955 17.0201 5.11336 22.3054 4.52893C22.7417 4.46821 23.1812 4.43222 23.6216 4.42114L23.625 4.41945ZM0 16.1586V19.5271H5.0625V16.1586H0ZM42.1875 16.1586V19.5271H47.25V16.1586H42.1875ZM9.28125 29.7909L5.74763 33.316L8.12194 35.6857L11.6522 32.1589L9.28125 29.7909ZM37.9688 29.7909L35.5961 32.1589L39.1281 35.6857L41.5024 33.316L37.9688 29.7909Z" fill="#3E4043"/>
</svg>
