<svg width="299" height="46" viewBox="0 0 299 46" fill="none" xmlns="http://www.w3.org/2000/svg">
<path d="M11 35C21.2204 30.0412 19.6574 30.6499 39.0093 22.9713C50.213 18.5258 55.775 14.9282 62.4675 13.2734C70.9209 11.1832 75.1666 9.99918 87.8981 10C103.176 15.9372 96.8126 21.0563 100.763 24.0951C104.489 26.9615 116.474 23.6953 120.5 22.9713C127.864 21.6471 134.594 19.2481 141.289 15.9372C146.648 13.2872 152.238 11.0259 158.332 11.0259C164.513 11.0259 167.391 14.3124 172.514 16.2702C179.392 18.8984 186.262 22.4538 193.556 20.5989C203.549 18.0574 212.316 14.0226 223.098 14.0226C228.637 14.0226 235.221 19.4775 239.005 23.0129C243.29 27.0149 248.004 26.7589 253.566 26.7589C266.198 26.7589 279.889 22.2849 289 13.2734" stroke="black" stroke-width="20" stroke-linecap="round"/>
</svg>
