<svg width="29" height="29" viewBox="0 0 48 48" fill="none" xmlns="http://www.w3.org/2000/svg">
<path d="M35.8125 13.1414C35.1562 11.7098 34.2234 10.4232 33.0328 9.32375C30.6141 7.08277 27.4031 5.84766 24 5.84766C20.5969 5.84766 17.3859 7.08277 14.9672 9.31907C13.7766 10.4232 12.8438 11.7051 12.1875 13.1414C11.5031 14.6385 11.1562 16.2245 11.1562 17.8619V19.1251C11.1562 19.4152 11.3906 19.6491 11.6812 19.6491H14.2125C14.5031 19.6491 14.7375 19.4152 14.7375 19.1251V17.8619C14.7375 13.2069 18.8906 9.42199 24 9.42199C29.1094 9.42199 33.2625 13.2069 33.2625 17.8619C33.2625 19.7707 32.5828 21.5673 31.2937 23.0644C30.0187 24.5474 28.2188 25.6094 26.2266 26.0586C25.0875 26.3159 24.0609 26.9568 23.3344 27.8738C22.6103 28.7877 22.2157 29.9182 22.2141 31.0832V32.5523C22.2141 32.8423 22.4484 33.0763 22.7391 33.0763H25.2703C25.5609 33.0763 25.7953 32.8423 25.7953 32.5523V31.0832C25.7953 30.3487 26.3062 29.7031 27.0141 29.544C29.7516 28.9265 32.2359 27.4528 34.0125 25.3942C34.9078 24.3509 35.6063 23.1907 36.0891 21.9322C36.5906 20.6269 36.8438 19.2561 36.8438 17.8619C36.8438 16.2245 36.4969 14.6338 35.8125 13.1414V13.1414ZM24 36.819C22.5516 36.819 21.375 37.9933 21.375 39.4389C21.375 40.8846 22.5516 42.0589 24 42.0589C25.4484 42.0589 26.625 40.8846 26.625 39.4389C26.625 37.9933 25.4484 36.819 24 36.819Z" fill="white"/>
</svg>
