<svg width="26" height="37" viewBox="0 0 26 37" fill="none" xmlns="http://www.w3.org/2000/svg">
<path d="M24.6562 7.29371C24 5.8621 23.0672 4.57553 21.8766 3.47609C19.4578 1.23511 16.2469 0 12.8438 0C9.44063 0 6.22969 1.23511 3.81094 3.47141C2.62031 4.57553 1.6875 5.85742 1.03125 7.29371C0.346875 8.79081 0 10.3768 0 12.0143V13.2774C0 13.5675 0.234375 13.8014 0.525 13.8014H3.05625C3.34688 13.8014 3.58125 13.5675 3.58125 13.2774V12.0143C3.58125 7.35921 7.73438 3.57434 12.8438 3.57434C17.9531 3.57434 22.1062 7.35921 22.1062 12.0143C22.1062 13.9231 21.4266 15.7196 20.1375 17.2167C18.8625 18.6998 17.0625 19.7618 15.0703 20.2109C13.9313 20.4682 12.9047 21.1092 12.1781 22.0262C11.4541 22.94 11.0595 24.0705 11.0578 25.2356V26.7046C11.0578 26.9947 11.2922 27.2286 11.5828 27.2286H14.1141C14.4047 27.2286 14.6391 26.9947 14.6391 26.7046V25.2356C14.6391 24.5011 15.15 23.8554 15.8578 23.6964C18.5953 23.0788 21.0797 21.6051 22.8562 19.5466C23.7516 18.5033 24.45 17.343 24.9328 16.0845C25.4344 14.7792 25.6875 13.4084 25.6875 12.0143C25.6875 10.3768 25.3406 8.78613 24.6562 7.29371V7.29371ZM12.8438 30.9714C11.3953 30.9714 10.2188 32.1457 10.2188 33.5913C10.2188 35.0369 11.3953 36.2112 12.8438 36.2112C14.2922 36.2112 15.4688 35.0369 15.4688 33.5913C15.4688 32.1457 14.2922 30.9714 12.8438 30.9714Z" fill="#3E4043"/>
</svg>
