<svg width="34" height="34" viewBox="0 0 34 34" fill="none" xmlns="http://www.w3.org/2000/svg">
<path d="M25.0508 12.0552L20.7824 16.3908C20.6044 16.5711 20.4093 16.7309 20.2347 16.9281C19.8 17.394 19.7453 17.9041 20.2005 18.3597C20.2872 18.4579 20.395 18.5355 20.5159 18.5868C20.6368 18.6382 20.7677 18.6619 20.899 18.6564C21.0304 18.6508 21.1588 18.6161 21.2749 18.5548C21.3909 18.4934 21.4917 18.407 21.5697 18.3019C23.9452 15.8569 26.307 13.395 28.7578 10.8514C27.9466 10.0625 26.9505 9.10355 25.9613 8.13101C24.5374 6.7436 23.1157 5.35166 21.6963 3.95519C21.2342 3.49272 20.7482 3.30909 20.1971 3.77496C19.7179 4.17962 19.7624 4.77471 20.3272 5.33239C21.58 6.57244 22.8419 7.80229 24.1129 9.02194C24.4347 9.33139 24.7975 9.60342 25.1398 9.89247L24.9994 10.1305H24.1882C20.7105 10.1305 17.2294 10.1135 13.7517 10.1305C8.7748 10.1645 4.88294 12.8713 3.48296 17.2274C2.77498 19.432 2.84573 21.8107 3.68351 23.97C4.5213 26.1292 6.07591 27.9397 8.09021 29.1019C8.23475 29.1921 8.38447 29.2739 8.53861 29.3467C9.10682 29.5848 9.61341 29.5338 9.92832 28.9455C10.2432 28.3572 9.95913 27.9253 9.46965 27.5853C8.63103 26.963 7.67947 26.4291 7.00515 25.6572C4.71522 23.0354 4.24285 20.0158 5.70444 16.8771C7.16602 13.7384 9.7298 12.1402 13.1698 12.0722C17.0891 11.994 21.0186 12.0552 25.0508 12.0552Z" fill="black" stroke="black" stroke-miterlimit="10"/>
</svg>
