<svg width="246" height="32" viewBox="0 0 246 32" fill="none" xmlns="http://www.w3.org/2000/svg">
<path d="M4 26.8542C9.51449 25.8551 12.6623 22.044 17.6984 20.4453C20.0488 19.6992 22.1429 18.0336 24.4377 17.0595C27.0114 15.967 30.0685 15.5259 32.4955 14.3388C42.4082 9.49047 45.7942 19.0641 53.446 20.8685C59.0612 22.1927 64.2008 23.3196 69.9646 21.6545C74.2422 20.4188 78.5947 19.2361 83.1136 19.2361C85.5195 19.2361 87.9636 19.126 90.3657 19.2361C92.387 19.3288 95.1399 21.5986 96.8119 22.501C101.457 25.0076 105.121 26.31 110.84 26.31C117.828 26.31 125.475 22.729 131.204 19.478C137.41 15.9565 142.629 12.8864 149.701 10.8018C151.37 10.3098 152.966 9.50879 154.719 10.2879C157.104 11.3481 160.528 10.8223 162.557 12.1622C165.304 13.9759 164.997 17.8505 166.329 20.3244C168.019 23.4623 171.736 27.9425 176.219 27.9425C180.176 27.9425 184.263 28.3542 187.939 26.9751C193.267 24.9762 198.347 22.7369 203.652 20.6569C210.361 18.0267 217.136 15.6112 223.87 12.9784C227.397 11.5992 230.498 9.39465 234.052 8.11133C236.394 7.26573 240.851 5.89666 242 4" stroke="black" stroke-width="8" stroke-linecap="round"/>
</svg>
