<svg width="30" height="30" viewBox="0 0 44 44" fill="none" xmlns="http://www.w3.org/2000/svg">
<path d="M2 9.98456H42M18 19.9653V29.946M26 19.9653V29.946M6 9.98456H38L34.84 38.3697C34.7317 39.3465 34.2661 40.2492 33.5325 40.9048C32.7989 41.5604 31.8487 41.9229 30.864 41.9228H13.136C12.1513 41.9229 11.2011 41.5604 10.4675 40.9048C9.73387 40.2492 9.26832 39.3465 9.16 38.3697L6 9.98456ZM12.69 4.28957C13.0135 3.60483 13.5254 3.02601 14.166 2.62062C14.8066 2.21523 15.5495 1.99999 16.308 2H27.692C28.4509 1.99961 29.1942 2.21468 29.8351 2.62009C30.4761 3.0255 30.9883 3.60453 31.312 4.28957L34 9.98456H10L12.69 4.28957Z" stroke="white" stroke-width="3" stroke-linecap="round" stroke-linejoin="round"/>
</svg>
