<svg width="34" height="34" viewBox="0 0 34 34" fill="none" xmlns="http://www.w3.org/2000/svg">
<path d="M7.42187 12.0552L11.6903 16.3908C11.8682 16.5711 12.0633 16.7309 12.2379 16.9281C12.6726 17.394 12.7274 17.9041 12.2721 18.3597C12.1854 18.4579 12.0777 18.5355 11.9568 18.5868C11.8359 18.6382 11.705 18.6619 11.5736 18.6564C11.4423 18.6508 11.3139 18.6161 11.1978 18.5548C11.0817 18.4934 10.981 18.407 10.903 18.3019C8.52747 15.8569 6.16566 13.395 3.71484 10.8514C4.52608 10.0625 5.52215 9.10355 6.51137 8.13101C7.93531 6.7436 9.35696 5.35166 10.7763 3.95519C11.2384 3.49272 11.7245 3.30909 12.2756 3.77496C12.7548 4.17962 12.7103 4.77471 12.1455 5.33239C10.8927 6.57244 9.63079 7.80229 8.35975 9.02194C8.03799 9.33139 7.67516 9.60342 7.33287 9.89247L7.47321 10.1305H8.28444C11.7621 10.1305 15.2432 10.1135 18.7209 10.1305C23.6979 10.1645 27.5897 12.8713 28.9897 17.2274C29.6977 19.432 29.6269 21.8107 28.7891 23.97C27.9514 26.1292 26.3967 27.9397 24.3824 29.1019C24.2379 29.1921 24.0882 29.2739 23.934 29.3467C23.3658 29.5848 22.8592 29.5338 22.5443 28.9455C22.2294 28.3572 22.5135 27.9253 23.003 27.5853C23.8416 26.963 24.7932 26.4291 25.4675 25.6572C27.7574 23.0354 28.2298 20.0158 26.7682 16.8771C25.3066 13.7384 22.7429 12.1402 19.3028 12.0722C15.3836 11.994 11.4541 12.0552 7.42187 12.0552Z" fill="black" stroke="black" stroke-miterlimit="10"/>
</svg>
