<svg width="299" height="46" viewBox="0 0 299 46" fill="none" xmlns="http://www.w3.org/2000/svg">
<path fill-rule="evenodd" clip-rule="evenodd" d="M65.0372 22.6917C64.6587 22.7857 64.2702 22.8822 63.8701 22.9811C61.5103 23.5645 59.1839 24.5241 55.5975 26.1671C55.029 26.4276 54.4335 26.703 53.8091 26.9916C50.6058 28.4727 46.6451 30.3041 41.6997 32.2663C24.2115 39.2054 24.1338 39.2433 16.7866 42.8206C16.0594 43.1747 15.261 43.5634 14.3675 43.9969C9.39863 46.4078 3.41619 44.3341 1.00535 39.3652C-1.4055 34.3964 0.668187 28.4139 5.63706 26.0031C6.37957 25.6428 7.06311 25.3105 7.69915 25.0013C16.0741 20.9299 16.2141 20.8618 34.3234 13.6763C38.7123 11.9348 42.1289 10.3562 45.3168 8.88323C45.9745 8.57934 46.6225 8.27995 47.2672 7.98455C50.9359 6.30378 54.7367 4.63709 59.0694 3.56578C59.3507 3.49624 59.6282 3.42751 59.9023 3.35961C68.2379 1.29504 73.4701 -0.000868361 86.9011 4.36569e-07L88.7755 0.000122507L90.5227 0.679102C99.2974 4.08912 104.848 8.41165 107.053 14.9293C107.073 14.9879 107.092 15.0462 107.111 15.1041C107.437 15.068 107.784 15.0247 108.15 14.974C109.801 14.7456 111.537 14.4121 113.209 14.0646C113.659 13.971 114.154 13.8655 114.657 13.7583C115.77 13.5208 116.924 13.2746 117.732 13.1292C124.024 11.9978 129.859 9.94022 135.858 6.97339C141.491 4.1877 148.82 1.02586 157.335 1.02586C162.47 1.02586 166.293 2.46886 169.295 3.96976C170.831 4.73795 171.738 5.25017 172.445 5.64898C173.355 6.16218 173.931 6.48759 175.086 6.92899C176.463 7.45497 177.646 7.93089 178.719 8.36213C180.911 9.24351 182.639 9.93824 184.6 10.4922C187.134 11.2079 188.764 11.2455 190.093 10.9074C192.337 10.3367 194.559 9.67033 196.938 8.9397C197.274 8.83663 197.614 8.73173 197.959 8.62553C199.992 7.99934 202.171 7.32795 204.364 6.72053C209.575 5.27704 215.438 4.02263 222.1 4.02263C227.803 4.02263 232.842 6.67489 236.116 8.77796C239.662 11.0556 242.759 13.7669 244.834 15.7051C245.369 16.2049 245.777 16.3993 246.591 16.5466C247.778 16.7617 249.08 16.7609 251.785 16.7592C252.034 16.759 252.295 16.7589 252.568 16.7589C263.163 16.7589 274.116 12.9428 280.97 6.16351C284.897 2.27985 291.229 2.31473 295.112 6.24143C298.996 10.1681 298.961 16.4997 295.034 20.3834C283.666 31.627 267.238 36.7589 252.568 36.7589C252.206 36.7589 251.815 36.7634 251.399 36.7682C246.541 36.8245 238.247 36.9205 231.182 30.3207C229.472 28.7235 227.384 26.9396 225.308 25.606C223.385 24.371 222.351 24.0969 222.129 24.0381C222.08 24.0251 222.071 24.0226 222.1 24.0226C217.98 24.0226 214.068 24.7856 209.703 25.9948C207.809 26.5194 205.937 27.0958 203.893 27.7251C203.537 27.8346 203.176 27.9458 202.809 28.0586C200.397 28.7992 197.776 29.5902 195.023 30.2903C189.059 31.8072 183.607 30.9945 179.163 29.7391C176.111 28.8769 172.824 27.5568 170.238 26.5185C169.387 26.1769 168.613 25.8657 167.947 25.6114C166.091 24.9021 164.524 24.1041 163.279 23.4356C162.699 23.1243 162.261 22.8831 161.886 22.6765C161.322 22.3656 160.9 22.1331 160.35 21.8579C159.086 21.2261 158.38 21.0259 157.335 21.0259C153.66 21.0259 149.808 22.3866 144.724 24.9011C137.333 28.5559 129.708 31.2964 121.272 32.8134C121.087 32.8466 120.651 32.9394 120.04 33.0693C117.989 33.5051 113.969 34.3593 110.892 34.7852C108.637 35.0972 105.964 35.3486 103.355 35.2181C101.112 35.1058 97.0918 34.655 93.668 32.0212C90.0526 29.2401 88.8878 25.7168 88.4268 23.3848C88.3292 22.8909 88.2606 22.4408 88.2163 22.1416C88.1961 22.0055 88.1812 21.9029 88.1687 21.8175C88.1663 21.8006 88.1639 21.7844 88.1616 21.7687C87.6909 21.4076 86.7342 20.7987 84.9464 20.01C75.4282 20.1124 71.8503 21.0005 65.0372 22.6917ZM88.5578 22.1406C88.5489 22.1423 88.4932 22.091 88.4174 21.9814C88.5287 22.084 88.5666 22.1388 88.5578 22.1406ZM103.866 15.1904C103.869 15.1879 103.921 15.1941 104.013 15.2162C103.909 15.2039 103.863 15.1929 103.866 15.1904Z" stroke="current" fill="current"/>
</svg>
