<svg width="246" height="32" viewBox="0 0 246 32" fill="none" xmlns="http://www.w3.org/2000/svg">
<path fill-rule="evenodd" clip-rule="evenodd" d="M244.073 0.578906C245.962 1.72354 246.566 4.18317 245.421 6.07264C244.692 7.27663 243.64 8.10958 242.813 8.65794C241.936 9.23917 240.973 9.71871 240.09 10.1088C238.73 10.7093 237.224 11.2366 236.157 11.6102C235.873 11.7094 235.621 11.7977 235.411 11.8737C233.939 12.4052 232.511 13.1456 230.831 14.0398C230.734 14.0914 230.636 14.1435 230.538 14.1962C229 15.0157 227.229 15.9602 225.326 16.7039C221.98 18.0121 218.628 19.2656 215.311 20.506L215.153 20.5653C211.774 21.8286 208.433 23.0793 205.112 24.3811C203.024 25.1998 200.851 26.0946 198.645 27.0029C195.562 28.2722 192.415 29.5681 189.344 30.7203C186.936 31.624 184.512 31.8967 182.325 31.9736C181.002 32.0201 179.509 31.9926 178.171 31.9679C177.461 31.9548 176.794 31.9426 176.219 31.9426C172.621 31.9426 169.66 30.1589 167.569 28.2994C165.449 26.4149 163.826 24.1119 162.808 22.2209C162.255 21.1949 161.93 20.137 161.705 19.3123C161.558 18.7738 161.477 18.4413 161.405 18.1468C161.326 17.826 161.259 17.5503 161.13 17.1027C160.76 15.8191 160.486 15.5885 160.354 15.5011C160.354 15.5013 160.234 15.429 159.871 15.3411C159.479 15.2463 158.994 15.1755 158.296 15.0919C158.182 15.0783 158.058 15.0643 157.925 15.0493C156.737 14.915 154.82 14.6985 153.141 13.964C153.108 13.9666 153.049 13.9736 152.959 13.9915C152.774 14.0282 152.537 14.0937 152.165 14.2132C152.084 14.2391 151.984 14.2721 151.871 14.3092C151.569 14.4084 151.177 14.5372 150.832 14.6387C144.575 16.4831 139.9 19.1389 134.023 22.4777C133.744 22.6359 133.463 22.7957 133.179 22.957C127.403 26.2342 118.96 30.3101 110.84 30.3101C104.284 30.3101 99.9663 28.7486 94.9125 26.0212C94.3274 25.7055 93.707 25.3042 93.2037 24.977C93.1362 24.9331 93.0695 24.8897 93.0037 24.8469C92.5296 24.5383 92.097 24.2567 91.6578 23.9925C91.159 23.6924 90.7557 23.479 90.4353 23.3438C90.2537 23.2671 90.151 23.2382 90.1165 23.229C88.6532 23.1644 87.2626 23.1861 85.752 23.2097C84.9198 23.2227 84.0511 23.2362 83.1138 23.2362C79.2321 23.2362 75.3849 24.2524 71.0749 25.4975C64.1825 27.4886 58.0775 26.0705 52.5281 24.7619C49.9088 24.1442 47.7818 22.889 46.0566 21.6905C45.2904 21.1584 44.5486 20.5972 43.8859 20.0958C43.8085 20.0372 43.7322 19.9795 43.6571 19.9227C42.909 19.3575 42.2561 18.8713 41.6115 18.4448C40.329 17.5962 39.326 17.1554 38.3469 17.025C37.4288 16.9027 36.1516 17.0036 34.2532 17.9321C32.6757 18.7037 30.9764 19.1952 29.6163 19.5821C29.5256 19.6079 29.4361 19.6333 29.348 19.6583C27.9963 20.0423 26.9444 20.3411 26.0008 20.7416C25.2525 21.0593 24.5338 21.4723 23.5687 22.0269C23.411 22.1176 23.2468 22.212 23.0748 22.3103C21.9655 22.9447 20.5292 23.7435 18.9088 24.2579C17.1777 24.8075 15.7511 25.6787 13.8525 26.8382C13.611 26.9857 13.3619 27.1378 13.1035 27.2946C10.931 28.6125 8.23665 30.1518 4.7133 30.7902C2.53955 31.184 0.458115 29.7411 0.0642799 27.5674C-0.329555 25.3936 1.11335 23.3122 3.2871 22.9183C5.27825 22.5576 6.91501 21.6918 8.95409 20.4548C9.17953 20.318 9.41331 20.1742 9.65535 20.0254C11.4766 18.9051 13.7654 17.4973 16.4883 16.6329C17.2184 16.4011 18.0044 15.9942 19.1034 15.3657C19.2359 15.2899 19.3754 15.2094 19.5209 15.1254C20.4555 14.5859 21.6427 13.9007 22.875 13.3776C24.3042 12.7709 25.8321 12.3388 27.0728 11.9878C27.1939 11.9536 27.3122 11.9201 27.4274 11.8874C28.846 11.4838 29.8888 11.1611 30.7383 10.7457C33.7962 9.25 36.6595 8.72952 39.4033 9.09506C42.0862 9.45248 44.2665 10.6088 46.0261 11.7732C46.9025 12.3531 47.7353 12.9773 48.4797 13.5398C48.5557 13.5972 48.6308 13.654 48.705 13.7101C49.3862 14.2252 49.9958 14.6862 50.6205 15.1201C51.992 16.0728 53.1577 16.6909 54.3643 16.9754C60.0453 18.3151 64.2196 19.1508 68.8547 17.8118C73.0998 16.5854 77.9577 15.2362 83.1138 15.2362C83.7877 15.2362 84.5239 15.2253 85.2943 15.2139C86.9788 15.1889 88.8274 15.1615 90.5491 15.2404C92.6821 15.3382 94.6639 16.4648 95.7821 17.1376C96.3522 17.4806 96.9121 17.8452 97.3754 18.1469C97.4402 18.1891 97.503 18.2301 97.5638 18.2696C98.1101 18.6247 98.4608 18.8455 98.7118 18.981C102.948 21.2668 105.958 22.3101 110.84 22.3101C116.698 22.3101 123.547 19.2239 129.23 15.9991C129.573 15.8049 129.913 15.6112 130.253 15.4182C135.994 12.1535 141.404 9.07766 148.57 6.96515C148.642 6.94387 148.77 6.90201 148.937 6.84749C149.525 6.65501 150.596 6.30471 151.398 6.14508C152.754 5.87551 154.487 5.80775 156.343 6.63275C156.851 6.85842 157.568 6.94758 159.247 7.14867L159.34 7.15976C160.616 7.31191 162.879 7.58175 164.761 8.82431L162.557 12.1623L164.761 8.82431C167.376 10.5512 168.322 13.1672 168.818 14.889C168.938 15.307 169.116 16.0071 169.253 16.5451C169.327 16.8386 169.39 17.0839 169.424 17.2088C169.602 17.863 169.738 18.2171 169.851 18.4281C170.523 19.675 171.603 21.181 172.885 22.321C174.195 23.4861 175.334 23.9426 176.219 23.9426C177.135 23.9426 177.94 23.959 178.699 23.9745C179.845 23.998 180.885 24.0192 182.044 23.9785C183.81 23.9164 185.267 23.7055 186.534 23.2301C189.601 22.0795 192.434 20.9101 195.34 19.7109C197.539 18.8037 199.778 17.8793 202.192 16.933C205.581 15.6046 208.98 14.3324 212.351 13.0721L212.485 13.0217C215.819 11.775 219.123 10.5394 222.413 9.25312C223.866 8.68516 225.258 7.94399 226.9 7.06951L227.071 6.97823C228.713 6.1045 230.612 5.10095 232.694 4.3492C233.027 4.22878 233.367 4.1095 233.711 3.98883C234.748 3.62531 235.82 3.24916 236.857 2.79106C237.525 2.49607 238.038 2.22486 238.393 1.98953C238.542 1.89075 238.628 1.82164 238.668 1.78652C239.848 0.0086298 242.231 -0.536747 244.073 0.578906Z" fill="current"/>
</svg>
